<?xml version="1.0" encoding="utf-8"?>
<!-- Generator: Adobe Illustrator 16.0.3, SVG Export Plug-In . SVG Version: 6.00 Build 0)  -->
<!DOCTYPE svg PUBLIC "-//W3C//DTD SVG 1.0//EN" "http://www.w3.org/TR/2001/REC-SVG-20010904/DTD/svg10.dtd">
<svg version="1.0" id="Capa_1" xmlns="http://www.w3.org/2000/svg" xmlns:xlink="http://www.w3.org/1999/xlink" x="0px" y="0px"
	 width="128px" height="128px" viewBox="0 0 128 128" enable-background="new 0 0 128 128" xml:space="preserve">
<path display="none" fill-rule="evenodd" clip-rule="evenodd" fill="#FBF01E" d="M13.453,28.792
	c6.51,1.63,11.735,3.199,17.071,4.143c2.043,0.361,2.33,0.695,2.777,2.733c0.815,3.712,2.636,7.645,6.855,8.334
	c3.945,0.645,8.118,0.42,11.055-3.42c2.285-2.988,2.85-6.265,1.354-9.443c-1.225-2.603-0.984-4.341,0.538-6.694
	c3.283-5.072,6.14-10.42,9.405-16.062c3.157,5.779,5.718,10.948,8.748,15.825c1.652,2.66,1.712,4.993,0.589,7.698
	c-2.194,5.286,1.646,10.706,6.229,12.133c5.169,1.609,12.747-2.315,13.016-7.111c0.179-3.205,1.034-4.032,3.876-4.267
	c2.807-0.231,5.451-1.376,8.319-1.666c2.559-0.258,5.022-1.465,7.894-2.369c-5.421,11.266-10.642,21.935-15.659,32.698
	c-0.981,2.107-1.753,2.234-3.539,1.058c-5.694-3.751-12.228-4.561-18.813-5.397c-6.762-0.858-13.386-0.928-20.209-0.113
	c-7.285,0.87-14.422,1.593-20.739,5.655c-2.182,1.403-2.447-0.46-3.04-1.665C24.066,50.483,18.985,40.086,13.453,28.792z"/>
<g display="none">
	<path display="inline" fill="#FBF01E" d="M50.955,65.447h1.399v0.98c0,3.687-0.023,6.93-0.069,9.729
		c-0.047,2.8-0.095,5.134-0.141,7c-0.187,7.56-0.279,13.3-0.279,17.22c0,5.087,0.14,10.057,0.42,14.91
		c-0.747,0.746-2.45,1.12-5.11,1.12l-3.15-0.07c-0.699-0.047-1.68-0.07-2.939-0.07c-1.027,0-2.03,0.116-3.01,0.351l0.07-1.68
		c-0.794,0.093-1.284,0.186-1.47,0.279c0.326-4.806,0.49-9.192,0.49-13.16c0-2.66-0.024-5.004-0.07-7.035
		c-0.047-2.029-0.094-3.697-0.14-5.004c-0.188-5.32-0.28-9.356-0.28-12.11c0-4.573,0.233-9.263,0.7-14.07
		c0.653-0.093,1.073-0.14,1.26-0.14c1.306,0,2.66,0.047,4.061,0.14c1.072,0.14,2.473,0.21,4.199,0.21h4.061V65.447z M41.505,64.537
		c-1.4-0.093-2.474-0.14-3.22-0.14h-0.28v0.14c-0.42,3.779-0.63,8.214-0.63,13.3c0,2.707,0.023,5.063,0.07,7.07
		c0.046,2.007,0.093,3.687,0.14,5.04c0.186,5.507,0.28,9.684,0.28,12.529c0,3.921-0.14,7.841-0.42,11.761
		c0.653-0.095,1.19-0.141,1.61-0.141c0.56,0,1.586,0.046,3.08,0.141c1.68,0.093,2.986,0.14,3.92,0.14c2.24,0,3.616-0.257,4.13-0.77
		c-0.279-5.04-0.42-10.126-0.42-15.26c0-3.826,0.093-9.427,0.28-16.801c0.046-1.865,0.093-4.176,0.14-6.93
		c0.046-2.753,0.07-5.95,0.07-9.59v-0.28h-3.29C45.845,64.747,44.024,64.677,41.505,64.537z"/>
	<path display="inline" fill="#FBF01E" d="M82.454,115.917l-3.36,0.07c-0.653,0.046-1.587,0.069-2.8,0.069
		c-0.047-0.326-0.07-0.816-0.07-1.47l-1.329,0.07c-0.141-2.521-0.211-6.696-0.211-12.53l-0.14-8.609
		c-0.14,0.373-0.409,1.119-0.805,2.239c-0.397,1.12-0.782,1.949-1.155,2.485c-0.374,0.537-0.724,0.805-1.05,0.805
		c-0.374,0-0.84-0.466-1.4-1.4c-0.7-0.045-1.54-1.235-2.52-3.569c-0.047,1.12-0.07,2.754-0.07,4.899c0,4.107,0.233,9.707,0.7,16.801
		c-1.82,0.279-3.757,0.42-5.811,0.42l-2.239,0.069c-1.12,0-1.995-0.104-2.625-0.314s-0.945-0.643-0.945-1.295h-0.35
		c-0.374,0-0.7-0.28-0.98-0.84c-0.094-0.28-0.152-1.389-0.175-3.325c-0.024-1.937-0.035-4.631-0.035-8.085
		c0-12.646,0.07-24.966,0.21-36.96c1.26-0.42,2.683-0.63,4.271-0.63c0.886,0,1.563,0.024,2.029,0.07l2.24,0.07
		c0.84,0,1.516-0.023,2.03-0.07l0.979,1.47l0.42-0.07c0.887,1.027,1.866,3.127,2.94,6.3l0.63,1.75
		c0.326-1.54,0.851-3.301,1.575-5.284c0.723-1.984,1.411-3.441,2.064-4.375c0.653,0.094,1.214,0.14,1.681,0.14
		c0.84,0,2.38-0.046,4.62-0.14c1.819-0.14,3.5-0.21,5.04-0.21l-0.07,1.4h1.47c-0.047,1.167-0.069,3.174-0.069,6.02l0.069,7.35
		c0.046,1.635,0.07,4.107,0.07,7.421v2.59c0,1.728-0.047,3.034-0.14,3.92v-0.069l-0.211,23.1
		C85.627,116.01,84.134,115.917,82.454,115.917z M85.184,87.566v-2.729c0-3.173-0.023-5.553-0.069-7.14l-0.07-7.211
		c0-2.379,0.023-4.152,0.07-5.319c-1.447,0-3.08,0.069-4.9,0.21l-4.34,0.141c-0.654,0-1.027-0.023-1.12-0.07
		c-0.42,0.56-0.887,1.574-1.399,3.045c-0.515,1.47-0.98,2.904-1.4,4.305c-0.28,0.934-0.549,1.774-0.805,2.52
		c-0.258,0.748-0.433,1.098-0.525,1.051c-0.28,0-0.607-0.42-0.979-1.26c-0.375-0.84-0.935-2.217-1.681-4.131
		c-0.42-1.166-0.84-2.274-1.26-3.324c-0.42-1.051-0.794-1.738-1.12-2.065h-0.07c-0.514,0.048-1.33,0.07-2.449,0.07l-2.521-0.07
		h-1.12c-1.54,0-2.684,0.117-3.43,0.351c-0.14,11.947-0.21,24.104-0.21,36.47c0,4.947,0.035,8.108,0.104,9.484
		c0.07,1.378,0.198,2.065,0.386,2.065l5.25,0.07c1.772,0,3.29-0.094,4.55-0.28c-0.42-6.393-0.63-11.783-0.63-16.17
		c0-3.5,0.14-6.953,0.42-10.36l0.21,0.7l0.56,1.47c0.746,2.147,1.423,3.944,2.03,5.391c0.605,1.447,1.12,2.17,1.54,2.17
		c0.186,0,0.513-0.561,0.979-1.68c0.467-1.121,0.934-2.334,1.4-3.641c1.026-2.706,1.703-4.34,2.03-4.9
		c0.42,3.78,0.676,9.707,0.77,17.78c0,1.074,0.023,2.603,0.07,4.585c0.046,1.984,0.093,3.605,0.14,4.865l4.41-0.07h2.521
		c0.513,0,1.282,0.047,2.31,0.141l0.21-22.33C85.137,90.764,85.184,89.387,85.184,87.566z"/>
</g>
<path fill-rule="evenodd" clip-rule="evenodd" fill="#FBF01E" d="M1.585,55.104c8.315,2.083,14.99,4.086,21.806,5.292
	c2.609,0.461,2.977,0.887,3.548,3.491c1.04,4.743,3.367,9.766,8.757,10.646c5.039,0.825,10.368,0.538,14.12-4.369
	c2.918-3.815,3.641-8.002,1.729-12.062c-1.564-3.324-1.258-5.545,0.688-8.55c4.193-6.479,7.842-13.311,12.013-20.517
	c4.033,7.382,7.305,13.984,11.175,20.214c2.111,3.397,2.188,6.378,0.753,9.833c-2.804,6.753,2.102,13.676,7.956,15.499
	c6.603,2.056,16.282-2.958,16.625-9.084c0.229-4.094,1.321-5.151,4.951-5.45c3.585-0.295,6.963-1.758,10.627-2.127
	c3.269-0.33,6.415-1.872,10.083-3.026c-6.925,14.392-13.594,28.018-20.003,41.767c-1.253,2.692-2.238,2.854-4.521,1.352
	c-7.273-4.791-15.619-5.827-24.031-6.895c-8.637-1.096-17.099-1.186-25.814-0.144c-9.306,1.111-18.422,2.034-26.491,7.224
	c-2.787,1.793-3.125-0.587-3.883-2.125C15.142,82.812,8.651,69.531,1.585,55.104z"/>
<g>
</g>
<g>
</g>
<g>
</g>
<g>
</g>
<g>
</g>
<g>
</g>
</svg>
